HIERARCHY
ROOT Hips
{
	OFFSET 0.000000 0.000000 0.000000
	CHANNELS 6 Xposition Yposition Zposition Xrotation Yrotation Zrotation
	JOINT LeftUpLeg_virtual
	{
		OFFSET 0.000000 0.000000 0.000000
		CHANNELS 3 Xrotation Yrotation Zrotation
		JOINT LeftUpLeg
		{
			OFFSET 10.205400 -3.823500 0.155100
			CHANNELS 3 Xrotation Yrotation Zrotation
			JOINT LeftLeg
			{
				OFFSET 0.708757 -12.982077 0.567790
				CHANNELS 3 Xrotation Yrotation Zrotation
				JOINT LeftFoot
				{
					OFFSET -0.708756 -10.717838 -2.184338
					CHANNELS 3 Xrotation Yrotation Zrotation
					JOINT LeftToeBase
					{
						OFFSET 0.108149 -7.191104 7.560241
						CHANNELS 3 Xrotation Yrotation Zrotation
						JOINT LeftToe_End
						{
							OFFSET 0.070230 0.081724 4.490308
							CHANNELS 3 Xrotation Yrotation Zrotation
							End Site
							{
								OFFSET 0 0 0
							}
						}
					}
				}
			}
		}
	}
	JOINT RightUpLeg_virtual
	{
		OFFSET 0.000000 0.000000 0.000000
		CHANNELS 3 Xrotation Yrotation Zrotation
		JOINT RightUpLeg
		{
			OFFSET -10.205400 -3.823500 0.005500
			CHANNELS 3 Xrotation Yrotation Zrotation
			JOINT RightLeg
			{
				OFFSET -0.708756 -12.982134 0.610632
				CHANNELS 3 Xrotation Yrotation Zrotation
				JOINT RightFoot
				{
					OFFSET 0.708754 -10.717769 -1.945823
					CHANNELS 3 Xrotation Yrotation Zrotation
					JOINT RightToeBase
					{
						OFFSET -0.108140 -7.191069 7.372968
						CHANNELS 3 Xrotation Yrotation Zrotation
						JOINT RightToe_End
						{
							OFFSET -0.070227 0.081735 4.479403
							CHANNELS 3 Xrotation Yrotation Zrotation
							End Site
							{
								OFFSET 0 0 0
							}
						}
					}
				}
			}
		}
	}
	JOINT Spine_virtual
	{
		OFFSET 0.000000 0.000000 0.000000
		CHANNELS 3 Xrotation Yrotation Zrotation
		JOINT Spine
		{
			OFFSET 0.000000 6.876099 0.125700
			CHANNELS 3 Xrotation Yrotation Zrotation
			JOINT Spine1
			{
				OFFSET 0.000000 5.730043 0.104720
				CHANNELS 3 Xrotation Yrotation Zrotation
				JOINT Spine1_split
				{
					OFFSET 0.000000 5.730043 0.104720
					CHANNELS 3 Xrotation Yrotation Zrotation
					JOINT Spine2
					{
						OFFSET 0.000000 5.730043 0.104720
						CHANNELS 3 Xrotation Yrotation Zrotation
						JOINT Neck_virtual
						{
							OFFSET 0.000000 0.000000 0.000000
							CHANNELS 3 Xrotation Yrotation Zrotation
							JOINT Neck
							{
								OFFSET 0.000000 10.314075 0.188496
								CHANNELS 3 Xrotation Yrotation Zrotation
								JOINT Head
								{
									OFFSET 0.000000 7.643700 -2.377400
									CHANNELS 3 Xrotation Yrotation Zrotation
									JOINT HeadTop_End
									{
										OFFSET 0.000000 43.788605 -13.619600
										CHANNELS 3 Xrotation Yrotation Zrotation
										End Site
										{
											OFFSET 0 0 0
										}
									}
								}
							}
						}
						JOINT LeftShoulder_virtual
						{
							OFFSET 0.000000 0.000000 0.000000
							CHANNELS 3 Xrotation Yrotation Zrotation
							JOINT LeftShoulder
							{
								OFFSET 2.196100 4.412489 0.087492
								CHANNELS 3 Xrotation Yrotation Zrotation
								JOINT LeftShoulder_split
								{
									OFFSET 2.196100 4.412489 0.087492
									CHANNELS 3 Xrotation Yrotation Zrotation
									JOINT LeftArm
									{
										OFFSET 8.771219 -2.981674 -0.026999
										CHANNELS 3 Xrotation Yrotation Zrotation
										JOINT LeftForeArm
										{
											OFFSET 8.512804 0.000000 -0.000000
											CHANNELS 3 Xrotation Yrotation Zrotation
											JOINT LeftHand
											{
												OFFSET 18.484802 0.000000 -0.000000
												CHANNELS 3 Xrotation Yrotation Zrotation
												End Site
												{
													OFFSET 0 0 0
												}
											}
										}
									}
								}
							}
						}
						JOINT RightShoulder_virtual
						{
							OFFSET 0.000000 0.000000 0.000000
							CHANNELS 3 Xrotation Yrotation Zrotation
							JOINT RightShoulder
							{
								OFFSET -2.196100 4.412496 0.070690
								CHANNELS 3 Xrotation Yrotation Zrotation
								JOINT RightShoulder_split
								{
									OFFSET -2.196100 4.412496 0.070690
									CHANNELS 3 Xrotation Yrotation Zrotation
									JOINT RightArm
									{
										OFFSET -8.771282 -2.981682 -0.094208
										CHANNELS 3 Xrotation Yrotation Zrotation
										JOINT RightForeArm
										{
											OFFSET -8.494598 0.000000 0.000000
											CHANNELS 3 Xrotation Yrotation Zrotation
											JOINT RightHand
											{
												OFFSET -18.483803 0.000000 0.000001
												CHANNELS 3 Xrotation Yrotation Zrotation
												End Site
												{
													OFFSET 0 0 0
												}
											}
										}
									}
								}
							}
						}
					}
				}
			}
		}
	}
}
MOTION
Frames: 10
Frame Time: 0.03333333
-2.875190 26.958073 -1.032900 0.000000 0.000000 0.000000 0.126804 -7.227078 -14.064732 -76.108784 17.664975 3.269642 122.996366 17.606483 3.576152 0.968805 -0.685342 18.321593 -15.339515 -1.331951 5.360706 0.000000 0.000000 0.000000 0.126804 -7.227078 -14.064732 -28.565852 4.284466 -2.680498 61.526665 8.110896 0.572274 -35.335557 -1.013586 9.608196 -5.746696 0.000039 0.000001 0.000000 0.000000 0.000000 0.126804 -7.227078 -14.064732 5.639224 0.404481 -1.964176 4.651095 0.654910 1.633864 0.000000 0.000000 0.000000 0.000000 0.000000 0.000000 4.657234 0.491970 1.673782 0.396499 1.761071 0.948531 -15.762642 26.254656 5.119161 0.000000 0.000000 0.000000 4.657234 0.491970 1.673782 0.472300 0.823569 -6.564700 0.000000 0.000000 0.000000 41.287049 -17.715626 -58.148727 0.000019 -58.979838 0.000018 0.000000 0.000000 0.000000 4.657234 0.491970 1.673782 0.625960 0.265401 11.022858 0.000000 0.000000 0.000000 -6.297840 23.802338 54.826905 179.999950 83.352999 179.999978 0.000000 0.000000 0.000000 
-2.892125 26.468861 5.903447 0.000000 0.000000 0.000000 0.219468 -3.561521 -14.162917 -94.953973 11.380766 2.808093 101.325126 11.857540 1.834451 14.556359 2.764908 20.589535 -6.755370 0.000009 0.000010 0.000000 0.000000 0.000000 0.219468 -3.561521 -14.162917 -6.114398 0.162685 -7.606652 57.956525 6.907673 1.134510 -45.211805 1.741079 12.984208 -17.492143 0.000113 0.000020 0.000000 0.000000 0.000000 0.219468 -3.561521 -14.162917 5.310875 4.434295 -1.060536 4.448708 3.149789 1.037698 0.000000 0.000000 0.000000 0.000000 0.000000 0.000000 4.488396 3.024019 1.166611 1.152620 0.559720 1.495087 -15.349720 17.467119 4.353242 0.000000 0.000000 0.000000 4.488396 3.024019 1.166611 0.360097 0.455529 -3.527326 0.000000 0.000000 0.000000 59.840428 -20.330475 -53.492898 0.000010 -68.582203 0.000021 0.000000 0.000000 0.000000 4.488396 3.024019 1.166611 0.572481 3.368496 7.197829 0.000000 0.000000 0.000000 -23.014579 20.036278 54.517228 179.999978 74.498267 179.999978 0.000000 0.000000 0.000000 
-2.858283 26.030369 13.709265 0.000000 0.000000 0.000000 0.735494 0.514072 -13.452219 -94.507087 8.957229 -2.207276 72.240302 10.022104 0.878048 13.552055 5.241669 19.514127 -5.013496 0.000011 -0.000003 0.000000 0.000000 0.000000 0.735494 0.514072 -13.452219 14.795551 -3.449964 -10.653038 46.374836 7.989592 1.348808 -33.727365 2.820882 17.475480 -46.317384 0.000272 0.000124 0.000000 0.000000 0.000000 0.735494 0.514072 -13.452219 4.467453 9.096641 -1.640205 3.806138 4.899886 0.544424 0.000000 0.000000 0.000000 0.000000 0.000000 0.000000 3.854887 4.810090 0.728472 1.851406 -0.666347 2.424844 -13.648603 8.449671 3.560925 0.000000 0.000000 0.000000 3.854887 4.810090 0.728472 0.392764 -1.275073 -0.003539 0.000000 0.000000 0.000000 72.967287 -18.588105 -51.410957 0.000068 -76.887959 0.000084 0.000000 0.000000 0.000000 3.854887 4.810090 0.728472 0.561418 2.815286 4.917571 0.000000 0.000000 0.000000 -32.372689 21.655229 54.937954 179.999978 66.274514 179.999978 0.000000 0.000000 0.000000 
-2.600222 25.430134 21.328756 0.000000 0.000000 0.000000 0.926841 2.946463 -13.574613 -85.775476 6.531402 -6.091396 39.577118 10.348136 1.045146 14.129891 6.897168 18.135254 2.908756 -0.000015 -0.000001 0.000000 0.000000 0.000000 0.926841 2.946463 -13.574613 28.855025 -5.763651 -6.364508 29.119142 7.775702 0.841323 8.456541 9.783461 15.014638 -68.810611 -0.170459 0.213871 0.000000 0.000000 0.000000 0.926841 2.946463 -13.574613 3.625226 13.418149 -1.977077 3.035826 5.561844 0.552607 0.000000 0.000000 0.000000 0.000000 0.000000 0.000000 3.084707 5.489804 0.742666 2.281945 -1.433100 3.208244 -11.326184 3.166455 2.699753 0.000000 0.000000 0.000000 3.084707 5.489804 0.742666 0.525146 -2.337378 2.235646 0.000000 0.000000 0.000000 77.571155 -15.679843 -52.491981 -0.000016 -81.470619 0.000010 0.000000 0.000000 0.000000 3.084707 5.489804 0.742666 0.430077 0.532124 5.065648 0.000000 0.000000 0.000000 -30.511104 28.210734 55.315209 179.999978 60.747976 179.999991 0.000000 0.000000 0.000000 
-1.927802 25.382660 28.266064 0.000000 0.000000 0.000000 0.518951 3.787716 -14.783722 -74.532158 5.251357 -7.666724 15.739995 10.058231 2.369896 20.386962 7.148620 19.260809 4.814261 -0.000009 -0.000011 0.000000 0.000000 0.000000 0.518951 3.787716 -14.783722 35.127393 -5.043576 -3.966474 27.395190 6.552288 0.326030 26.085778 8.088558 14.155101 -14.862365 -0.431659 2.847644 0.000000 0.000000 0.000000 0.518951 3.787716 -14.783722 2.989593 14.694114 -1.045587 2.517207 5.130305 1.152907 0.000000 0.000000 0.000000 0.000000 0.000000 0.000000 2.565330 5.050974 1.308304 2.408212 -1.342185 3.193332 -9.581378 4.345372 1.790657 0.000000 0.000000 0.000000 2.565330 5.050974 1.308304 0.350898 -0.939739 1.385436 0.000000 0.000000 0.000000 73.266797 -14.810545 -55.599796 0.000053 -81.365844 0.000079 0.000000 0.000000 0.000000 2.565330 5.050974 1.308304 0.492934 -0.760628 7.458979 0.000000 0.000000 0.000000 -17.187942 35.112309 52.909958 179.999991 61.068680 179.999991 0.000000 0.000000 0.000000 
-0.667676 26.102619 35.145409 0.000000 0.000000 0.000000 0.036130 5.016409 -15.610129 -71.072736 8.180566 -8.419432 26.888701 8.345795 1.128453 17.062533 8.157758 26.433124 -0.652725 0.000002 -0.000007 0.000000 0.000000 0.000000 0.036130 5.016409 -15.610129 23.167074 -3.152940 -4.527422 58.743479 -1.340439 0.574442 14.767023 1.189449 12.895045 -1.244547 -0.000001 0.000004 0.000000 0.000000 0.000000 0.036130 5.016409 -15.610129 2.790377 11.490799 0.345467 2.425088 3.985266 1.821497 0.000000 0.000000 0.000000 0.000000 0.000000 0.000000 2.466966 3.889111 1.928341 2.331923 -0.484882 2.244291 -9.336222 10.445931 1.340469 0.000000 0.000000 0.000000 2.466966 3.889111 1.928341 0.163884 2.386604 -2.580101 0.000000 0.000000 0.000000 61.102046 -15.424736 -58.000054 0.000010 -78.106041 0.000012 0.000000 0.000000 0.000000 2.466966 3.889111 1.928341 0.621120 -0.390866 10.311998 0.000000 0.000000 0.000000 0.689248 34.915825 49.624333 179.999937 68.357421 -179.999964 0.000000 0.000000 0.000000 
1.289509 27.007446 42.913361 0.000000 0.000000 0.000000 0.188055 7.956008 -14.701181 -61.814940 13.026523 -12.775753 43.163801 10.337976 0.891007 9.994688 9.205090 34.911655 -2.955394 0.000006 0.000006 0.000000 0.000000 0.000000 0.188055 7.956008 -14.701181 6.833413 -3.168001 -4.565774 88.074244 -11.913138 -0.057782 -2.636113 -6.567249 10.755489 7.077255 -0.000057 0.000009 0.000000 0.000000 0.000000 0.188055 7.956008 -14.701181 3.066536 6.052346 0.757307 2.620223 2.492903 1.862407 0.000000 0.000000 0.000000 0.000000 0.000000 0.000000 2.643467 2.396548 1.922605 2.115955 0.589966 1.003962 -10.595767 17.102169 1.931461 0.000000 0.000000 0.000000 2.643467 2.396548 1.922605 0.438160 4.775267 -7.281946 0.000000 0.000000 0.000000 43.683967 -16.284730 -57.262800 0.000029 -74.515219 0.000034 0.000000 0.000000 0.000000 2.643467 2.396548 1.922605 0.653202 -0.519079 11.624134 0.000000 0.000000 0.000000 13.430496 26.280877 51.009919 179.999950 78.652101 -179.999978 0.000000 0.000000 0.000000 
3.481744 27.896034 50.598820 0.000000 0.000000 0.000000 0.696186 12.355957 -12.717885 -46.644349 15.821708 -20.719625 61.521153 12.655995 1.700061 -18.733426 4.543124 33.662587 -6.037340 -0.000008 -0.000005 0.000000 0.000000 0.000000 0.696186 12.355957 -12.717885 -18.234525 -2.851093 -4.090444 106.479446 -18.644174 -1.498277 -10.207048 -11.768875 2.895507 11.191857 -0.000061 -0.000012 0.000000 0.000000 0.000000 0.696186 12.355957 -12.717885 3.477235 1.375706 0.098762 2.887156 0.751787 1.223242 0.000000 0.000000 0.000000 0.000000 0.000000 0.000000 2.887543 0.681691 1.238275 1.867743 1.407079 0.273320 -12.308787 21.682343 3.326884 0.000000 0.000000 0.000000 2.887543 0.681691 1.238275 0.626730 3.972758 -9.706238 0.000000 0.000000 0.000000 24.801371 -17.718412 -55.978048 0.000025 -73.223385 0.000024 0.000000 0.000000 0.000000 2.887543 0.681691 1.238275 0.666996 -2.720484 10.755641 0.000000 0.000000 0.000000 23.035416 14.599681 53.904112 179.999991 85.000133 179.999964 0.000000 0.000000 0.000000 
5.309124 28.117985 57.391464 0.000000 0.000000 0.000000 0.647513 16.540312 -11.172508 -23.997817 11.185762 -26.828078 62.000885 13.524004 2.021590 -39.580936 0.956631 30.983582 -6.396767 -0.000011 -0.000009 0.000000 0.000000 0.000000 0.647513 16.540312 -11.172508 -50.277569 3.165578 -3.004950 108.920275 -19.974770 -1.969495 -2.466363 -6.436010 -6.085123 2.429756 -0.000009 0.000015 0.000000 0.000000 0.000000 0.647513 16.540312 -11.172508 3.771626 -1.924091 -0.901579 3.062444 -1.241667 0.638899 0.000000 0.000000 0.000000 0.000000 0.000000 0.000000 3.053610 -1.275830 0.610868 1.925620 1.980464 0.205639 -12.959448 25.505601 4.580841 0.000000 0.000000 0.000000 3.053610 -1.275830 0.610868 0.506655 0.713590 -8.886551 0.000000 0.000000 0.000000 7.607682 -17.491228 -55.535599 0.000016 -76.319400 0.000032 0.000000 0.000000 0.000000 3.053610 -1.275830 0.610868 0.479171 -5.480474 8.189264 0.000000 0.000000 0.000000 34.950228 5.985478 54.464929 179.999800 83.383783 -179.999882 0.000000 0.000000 0.000000 
7.093366 27.486759 64.803650 0.000000 0.000000 0.000000 0.053738 19.187489 -11.007814 1.107312 3.952474 -27.516787 54.978809 15.082437 2.158593 -54.082449 -1.288352 27.706516 -12.596351 0.000019 0.000012 0.000000 0.000000 0.000000 0.053738 19.187489 -11.007814 -71.513897 8.871776 -0.149155 93.029157 -14.037736 -0.933792 8.152093 0.605553 -8.134949 -6.942736 0.000056 -0.000010 0.000000 0.000000 0.000000 0.053738 19.187489 -11.007814 3.644169 -5.550345 -1.404538 2.976202 -3.322251 0.818415 0.000000 0.000000 0.000000 0.000000 0.000000 0.000000 2.969308 -3.333810 0.759733 2.586331 2.626495 0.261872 -11.911257 31.225200 5.121104 0.000000 0.000000 0.000000 2.969308 -3.333810 0.759733 0.520355 -2.155157 -6.455531 0.000000 0.000000 0.000000 -7.575769 -14.903174 -53.242096 0.000019 -84.974882 0.000083 0.000000 0.000000 0.000000 2.969308 -3.333810 0.759733 0.065961 -6.201993 4.633284 0.000000 0.000000 0.000000 48.989002 1.615323 51.420191 179.999978 75.715051 179.999978 0.000000 0.000000 0.000000 
